<?xml version="1.0" standalone="no"?>
<!DOCTYPE svg PUBLIC "-//W3C//DTD SVG 20010904//EN"
 "http://www.w3.org/TR/2001/REC-SVG-20010904/DTD/svg10.dtd">
<svg version="1.0" xmlns="http://www.w3.org/2000/svg"
 width="776.000000pt" height="748.000000pt" viewBox="0 0 776.000000 748.000000"
 preserveAspectRatio="xMidYMid meet">

<g transform="translate(0.000000,748.000000) scale(0.100000,-0.100000)"
fill="#000000" stroke="none">
<path d="M2456 6150 c-336 -26 -666 -86 -891 -162 -261 -88 -427 -207 -521
-374 -38 -68 -74 -194 -74 -261 l0 -43 -87 0 c-100 0 -127 -11 -160 -59 -19
-28 -23 -47 -23 -111 l0 -77 -43 -6 c-30 -4 -50 -14 -70 -37 l-27 -30 0 -341
0 -341 30 -28 c27 -25 39 -29 105 -32 96 -4 131 4 164 36 l26 26 0 339 0 338
-27 36 c-23 29 -28 46 -28 91 l0 56 70 0 70 0 0 -816 0 -816 -59 -63 c-32 -35
-71 -88 -85 -118 -54 -110 -56 -127 -56 -599 0 -426 -1 -438 -20 -448 -42 -23
-50 -59 -50 -235 0 -175 5 -199 50 -240 19 -18 40 -21 179 -25 l156 -5 5 -180
c5 -166 7 -183 28 -217 13 -21 35 -47 50 -59 56 -43 86 -49 269 -49 189 0 223
7 276 58 57 54 62 72 67 267 l5 180 998 3 997 2 0 -168 c0 -160 1 -171 25
-219 26 -51 72 -91 128 -112 16 -6 103 -11 200 -11 190 0 225 9 279 66 51 55
58 88 58 274 l0 170 153 0 c135 0 156 2 185 20 51 31 62 70 62 222 -1 167 -9
204 -55 246 -36 33 -36 33 -34 111 l2 78 -66 80 c-213 258 -388 622 -456 948
-44 218 -54 334 -55 682 -1 320 0 333 19 351 12 12 61 27 125 41 58 12 140 31
183 42 l77 21 0 254 0 254 75 0 75 0 0 -49 c0 -45 -3 -52 -30 -67 -45 -27 -51
-54 -48 -221 l3 -151 158 56 157 55 0 103 c0 95 -2 105 -26 133 -15 18 -39 33
-60 37 l-34 6 0 82 c0 60 -4 88 -17 106 -31 45 -44 49 -149 50 l-101 0 -7 74
c-25 277 -198 475 -520 597 -207 77 -499 137 -836 169 -150 15 -655 21 -794
10z m879 -163 c245 -34 311 -63 359 -159 25 -50 26 -59 26 -223 0 -161 -2
-175 -23 -216 -16 -29 -40 -54 -72 -74 l-48 -30 -784 -3 c-757 -2 -786 -2
-828 17 -29 13 -53 34 -72 62 -28 42 -28 45 -31 219 -3 115 0 191 8 220 15 57
79 121 138 138 58 17 280 50 422 61 172 14 772 6 905 -12z m-1765 -342 c84
-80 53 -212 -58 -246 -35 -10 -48 -9 -87 5 -112 43 -126 186 -25 254 50 34
128 27 170 -13z m2608 -3 c52 -34 68 -121 33 -178 -27 -45 -98 -71 -149 -56
-52 16 -92 61 -99 109 -15 111 118 189 215 125z m229 -734 c-2 -18 -4 -4 -4
32 0 36 2 50 4 33 2 -18 2 -48 0 -65z m0 -85 c-3 -10 -5 -2 -5 17 0 19 2 27 5
18 2 -10 2 -26 0 -35z m0 -70 c-3 -10 -5 -4 -5 12 0 17 2 24 5 18 2 -7 2 -21
0 -30z m-1710 -130 c-2 -16 -4 -5 -4 22 0 28 2 40 4 28 2 -13 2 -35 0 -50z m0
-145 c-2 -18 -4 -6 -4 27 0 33 2 48 4 33 2 -15 2 -42 0 -60z m1370 15 c-3 -10
-5 -2 -5 17 0 19 2 27 5 18 2 -10 2 -26 0 -35z m-1370 -250 c-2 -38 -3 -7 -3
67 0 74 1 105 3 68 2 -38 2 -98 0 -135z m1370 -75 c-2 -13 -4 -3 -4 22 0 25 2
35 4 23 2 -13 2 -33 0 -45z m-202 -188 c88 -10 171 -32 197 -52 12 -10 19 -44
28 -138 19 -209 40 -305 127 -602 4 -15 0 -15 -37 -6 -83 21 -198 -25 -255
-102 -29 -39 -55 -118 -55 -165 0 -141 129 -275 266 -275 96 0 177 42 224 117
l28 44 38 -58 c52 -81 145 -202 188 -242 35 -34 36 -37 36 -108 l0 -73 -1876
0 -1875 0 3 443 c4 432 4 443 26 499 25 62 93 145 146 178 l34 20 4 113 c5
133 24 182 99 257 84 82 207 134 353 150 106 11 2207 12 2301 0z"/>
<path d="M2154 5773 c-22 -22 -20 -296 2 -317 14 -14 86 -16 643 -16 474 0
630 3 639 12 8 8 12 58 12 159 0 121 -3 150 -16 163 -14 14 -85 16 -641 14
-520 -1 -627 -4 -639 -15z"/>
<path d="M2049 3463 c-16 -6 -38 -27 -49 -45 -19 -32 -20 -50 -20 -456 0 -462
1 -467 57 -491 21 -8 221 -11 755 -9 l728 3 32 33 33 32 0 440 0 440 -33 32
-32 33 -722 0 c-536 0 -728 -3 -749 -12z m1323 -184 c30 -16 38 -28 38 -60 0
-58 18 -56 -621 -64 l-587 -7 -21 21 c-24 24 -27 59 -7 87 14 18 34 19 533 24
285 3 546 6 580 8 35 2 72 -2 85 -9z m25 -295 c18 -25 16 -64 -4 -86 -15 -17
-47 -18 -610 -18 -580 0 -593 0 -613 20 -26 26 -25 56 3 83 l22 22 595 -2
c552 -2 595 -3 607 -19z m-13 -269 c26 -27 29 -56 8 -84 l-19 -26 -593 -3
c-660 -2 -630 -5 -630 64 0 66 -21 64 632 64 509 0 589 -2 602 -15z"/>
<path d="M1350 3181 c-126 -26 -211 -133 -211 -266 0 -117 68 -219 174 -260
59 -22 155 -17 214 13 82 42 143 146 143 242 0 168 -160 304 -320 271z"/>
</g>
</svg>
